<svg width="32" height="32" viewBox="0 0 32 32" fill="none" xmlns="http://www.w3.org/2000/svg">
<mask id="mask0_115_1021" style="mask-type:alpha" maskUnits="userSpaceOnUse" x="0" y="0" width="32" height="32">
<rect width="32" height="32" fill="#D9D9D9"/>
</mask>
<g mask="url(#mask0_115_1021)">
<path d="M5.3335 20C4.22239 20 3.27794 19.6111 2.50016 18.8333C1.72238 18.0555 1.3335 17.1111 1.3335 16C1.3335 14.8889 1.72238 13.9444 2.50016 13.1667C3.27794 12.3889 4.22239 12 5.3335 12V9.33332C5.3335 8.59999 5.59461 7.97221 6.11683 7.44999C6.63905 6.92777 7.26683 6.66666 8.00016 6.66666H12.0002C12.0002 5.55555 12.3891 4.6111 13.1668 3.83332C13.9446 3.05555 14.8891 2.66666 16.0002 2.66666C17.1113 2.66666 18.0557 3.05555 18.8335 3.83332C19.6113 4.6111 20.0002 5.55555 20.0002 6.66666H24.0002C24.7335 6.66666 25.3613 6.92777 25.8835 7.44999C26.4057 7.97221 26.6668 8.59999 26.6668 9.33332V12C27.7779 12 28.7224 12.3889 29.5002 13.1667C30.2779 13.9444 30.6668 14.8889 30.6668 16C30.6668 17.1111 30.2779 18.0555 29.5002 18.8333C28.7224 19.6111 27.7779 20 26.6668 20V25.3333C26.6668 26.0667 26.4057 26.6944 25.8835 27.2167C25.3613 27.7389 24.7335 28 24.0002 28H8.00016C7.26683 28 6.63905 27.7389 6.11683 27.2167C5.59461 26.6944 5.3335 26.0667 5.3335 25.3333V20ZM12.0002 17.3333C12.5557 17.3333 13.0279 17.1389 13.4168 16.75C13.8057 16.3611 14.0002 15.8889 14.0002 15.3333C14.0002 14.7778 13.8057 14.3055 13.4168 13.9167C13.0279 13.5278 12.5557 13.3333 12.0002 13.3333C11.4446 13.3333 10.9724 13.5278 10.5835 13.9167C10.1946 14.3055 10.0002 14.7778 10.0002 15.3333C10.0002 15.8889 10.1946 16.3611 10.5835 16.75C10.9724 17.1389 11.4446 17.3333 12.0002 17.3333ZM20.0002 17.3333C20.5557 17.3333 21.0279 17.1389 21.4168 16.75C21.8057 16.3611 22.0002 15.8889 22.0002 15.3333C22.0002 14.7778 21.8057 14.3055 21.4168 13.9167C21.0279 13.5278 20.5557 13.3333 20.0002 13.3333C19.4446 13.3333 18.9724 13.5278 18.5835 13.9167C18.1946 14.3055 18.0002 14.7778 18.0002 15.3333C18.0002 15.8889 18.1946 16.3611 18.5835 16.75C18.9724 17.1389 19.4446 17.3333 20.0002 17.3333ZM12.0002 22.6667H20.0002C20.3779 22.6667 20.6946 22.5389 20.9502 22.2833C21.2057 22.0278 21.3335 21.7111 21.3335 21.3333C21.3335 20.9555 21.2057 20.6389 20.9502 20.3833C20.6946 20.1278 20.3779 20 20.0002 20H12.0002C11.6224 20 11.3057 20.1278 11.0502 20.3833C10.7946 20.6389 10.6668 20.9555 10.6668 21.3333C10.6668 21.7111 10.7946 22.0278 11.0502 22.2833C11.3057 22.5389 11.6224 22.6667 12.0002 22.6667Z" fill="#0B558A"/>
</g>
</svg>
