<svg width="19" height="18" viewBox="0 0 19 18" fill="none" xmlns="http://www.w3.org/2000/svg">
<mask id="mask0_262_5326" style="mask-type:alpha" maskUnits="userSpaceOnUse" x="0" y="0" width="19" height="18">
<rect x="0.385742" y="-1.52588e-05" width="18" height="18" fill="#D9D9D9"/>
</mask>
<g mask="url(#mask0_262_5326)">
<mask id="path-2-inside-1_262_5326" fill="white">
<path d="M8.63574 14.1539C8.18387 14.1539 7.78962 14.0096 7.45299 13.7211C7.11649 13.4327 6.90499 13.077 6.81849 12.6539H7.59737C7.67424 12.876 7.80618 13.0565 7.99318 13.1954C8.18018 13.3344 8.39437 13.4039 8.63574 13.4039C8.94437 13.4039 9.20905 13.2935 9.4298 13.0729C9.65043 12.8522 9.76074 12.5875 9.76074 12.2789C9.76074 11.9702 9.65043 11.7055 9.4298 11.4848C9.20905 11.2642 8.94437 11.1539 8.63574 11.1539H1.88574V10.4039H8.63574C9.15499 10.4039 9.59731 10.5865 9.96268 10.9519C10.3281 11.3173 10.5107 11.7596 10.5107 12.2789C10.5107 12.7981 10.3281 13.2404 9.96268 13.6058C9.59731 13.9712 9.15499 14.1539 8.63574 14.1539ZM1.88574 6.99998V6.24998H11.6357C12.0569 6.24998 12.4122 6.1053 12.7017 5.81592C12.9911 5.52642 13.1357 5.17111 13.1357 4.74998C13.1357 4.32886 12.9911 3.97355 12.7017 3.68405C12.4122 3.39467 12.0569 3.24998 11.6357 3.24998C11.2722 3.24998 10.9602 3.35623 10.6997 3.56873C10.4391 3.78123 10.2704 4.04998 10.1935 4.37498H9.41462C9.50112 3.82986 9.75181 3.38105 10.1667 3.02855C10.5817 2.67617 11.0714 2.49998 11.6357 2.49998C12.2675 2.49998 12.8004 2.71705 13.2346 3.15117C13.6687 3.5853 13.8857 4.11823 13.8857 4.74998C13.8857 5.38173 13.6687 5.91467 13.2346 6.3488C12.8004 6.78292 12.2675 6.99998 11.6357 6.99998H1.88574ZM14.2607 12.798V12.0192C14.5857 11.9423 14.8545 11.7735 15.067 11.5129C15.2795 11.2524 15.3857 10.9404 15.3857 10.5769C15.3857 10.1558 15.2411 9.80049 14.9517 9.51099C14.6622 9.22161 14.3069 9.07692 13.8857 9.07692H1.88574V8.32692H13.8857C14.5175 8.32692 15.0504 8.54399 15.4846 8.97811C15.9187 9.41224 16.1357 9.94517 16.1357 10.5769C16.1357 11.1413 15.9596 11.631 15.6072 12.046C15.2548 12.4609 14.806 12.7115 14.2607 12.798Z"/>
</mask>
<path d="M8.63574 14.1539C8.18387 14.1539 7.78962 14.0096 7.45299 13.7211C7.11649 13.4327 6.90499 13.077 6.81849 12.6539H7.59737C7.67424 12.876 7.80618 13.0565 7.99318 13.1954C8.18018 13.3344 8.39437 13.4039 8.63574 13.4039C8.94437 13.4039 9.20905 13.2935 9.4298 13.0729C9.65043 12.8522 9.76074 12.5875 9.76074 12.2789C9.76074 11.9702 9.65043 11.7055 9.4298 11.4848C9.20905 11.2642 8.94437 11.1539 8.63574 11.1539H1.88574V10.4039H8.63574C9.15499 10.4039 9.59731 10.5865 9.96268 10.9519C10.3281 11.3173 10.5107 11.7596 10.5107 12.2789C10.5107 12.7981 10.3281 13.2404 9.96268 13.6058C9.59731 13.9712 9.15499 14.1539 8.63574 14.1539ZM1.88574 6.99998V6.24998H11.6357C12.0569 6.24998 12.4122 6.1053 12.7017 5.81592C12.9911 5.52642 13.1357 5.17111 13.1357 4.74998C13.1357 4.32886 12.9911 3.97355 12.7017 3.68405C12.4122 3.39467 12.0569 3.24998 11.6357 3.24998C11.2722 3.24998 10.9602 3.35623 10.6997 3.56873C10.4391 3.78123 10.2704 4.04998 10.1935 4.37498H9.41462C9.50112 3.82986 9.75181 3.38105 10.1667 3.02855C10.5817 2.67617 11.0714 2.49998 11.6357 2.49998C12.2675 2.49998 12.8004 2.71705 13.2346 3.15117C13.6687 3.5853 13.8857 4.11823 13.8857 4.74998C13.8857 5.38173 13.6687 5.91467 13.2346 6.3488C12.8004 6.78292 12.2675 6.99998 11.6357 6.99998H1.88574ZM14.2607 12.798V12.0192C14.5857 11.9423 14.8545 11.7735 15.067 11.5129C15.2795 11.2524 15.3857 10.9404 15.3857 10.5769C15.3857 10.1558 15.2411 9.80049 14.9517 9.51099C14.6622 9.22161 14.3069 9.07692 13.8857 9.07692H1.88574V8.32692H13.8857C14.5175 8.32692 15.0504 8.54399 15.4846 8.97811C15.9187 9.41224 16.1357 9.94517 16.1357 10.5769C16.1357 11.1413 15.9596 11.631 15.6072 12.046C15.2548 12.4609 14.806 12.7115 14.2607 12.798Z" fill="#326DEC"/>
<path d="M7.45299 13.7211L8.75448 12.2025L8.75444 12.2025L7.45299 13.7211ZM6.81849 12.6539V10.6539H4.36826L4.85902 13.0544L6.81849 12.6539ZM7.59737 12.6539L9.48738 11.9997L9.02158 10.6539H7.59737V12.6539ZM7.99318 13.1954L9.1863 11.5902L9.18561 11.5897L7.99318 13.1954ZM9.4298 13.0729L10.8436 14.4875L10.8444 14.4867L9.4298 13.0729ZM9.4298 11.4848L10.8444 10.071L10.8436 10.0702L9.4298 11.4848ZM1.88574 11.1539H-0.114258V13.1539H1.88574V11.1539ZM1.88574 10.4039V8.40386H-0.114258V10.4039H1.88574ZM1.88574 6.99998H-0.114258V8.99998H1.88574V6.99998ZM1.88574 6.24998V4.24998H-0.114258V6.24998H1.88574ZM12.7017 5.81592L14.1156 7.23044L14.1162 7.22983L12.7017 5.81592ZM12.7017 3.68405L14.1162 2.27014L14.1156 2.26953L12.7017 3.68405ZM10.6997 3.56873L11.9636 5.1188L11.9639 5.1185L10.6997 3.56873ZM10.1935 4.37498V6.37498H11.7756L12.1398 4.83536L10.1935 4.37498ZM9.41462 4.37498L7.43933 4.06155L7.07224 6.37498H9.41462V4.37498ZM10.1667 3.02855L8.87218 1.50399L8.87169 1.50441L10.1667 3.02855ZM14.2607 12.798H12.2607V15.1403L14.5741 14.7733L14.2607 12.798ZM14.2607 12.0192L13.8004 10.0729L12.2607 10.4371V12.0192H14.2607ZM15.067 11.5129L13.5172 10.2487L13.5169 10.2491L15.067 11.5129ZM14.9517 9.51099L16.3662 8.09708L16.3656 8.09647L14.9517 9.51099ZM1.88574 9.07692H-0.114258V11.0769H1.88574V9.07692ZM1.88574 8.32692V6.32692H-0.114258V8.32692H1.88574ZM15.6072 12.046L17.1315 13.3407L17.1317 13.3405L15.6072 12.046ZM8.63574 12.1539C8.62627 12.1539 8.64905 12.1531 8.68836 12.1674C8.70631 12.174 8.7223 12.1818 8.73524 12.1895C8.74146 12.1932 8.74625 12.1964 8.74961 12.1988C8.75295 12.2012 8.75456 12.2026 8.75448 12.2025L6.1515 15.2397C6.85818 15.8454 7.71656 16.1539 8.63574 16.1539V12.1539ZM8.75444 12.2025C8.74619 12.1954 8.74469 12.1931 8.74736 12.1962C8.75014 12.1995 8.7553 12.2062 8.76112 12.216C8.76696 12.2258 8.77156 12.2355 8.77475 12.2439C8.7779 12.2521 8.77849 12.2558 8.77797 12.2533L4.85902 13.0544C5.03702 13.9251 5.4871 14.6703 6.15155 15.2397L8.75444 12.2025ZM6.81849 14.6539H7.59737V10.6539H6.81849V14.6539ZM5.70736 13.308C5.9145 13.9065 6.2877 14.42 6.80075 14.801L9.18561 11.5897C9.24663 11.635 9.31113 11.697 9.36861 11.7756C9.42601 11.8541 9.46407 11.9324 9.48738 11.9997L5.70736 13.308ZM6.80006 14.8005C7.34506 15.2056 7.98111 15.4039 8.63574 15.4039V11.4039C8.70958 11.4039 8.80522 11.4149 8.91135 11.4494C9.01823 11.4841 9.11142 11.5346 9.1863 11.5902L6.80006 14.8005ZM8.63574 15.4039C9.48127 15.4039 10.2526 15.0782 10.8436 14.4875L8.01599 11.6583C8.0738 11.6005 8.16724 11.5288 8.29634 11.475C8.42589 11.421 8.5463 11.4039 8.63574 11.4039V15.4039ZM10.8444 14.4867C11.4351 13.8957 11.7607 13.1244 11.7607 12.2789H7.76074C7.76074 12.1894 7.77793 12.069 7.83192 11.9395C7.88572 11.8104 7.95742 11.7169 8.01519 11.6591L10.8444 14.4867ZM11.7607 12.2789C11.7607 11.4333 11.4351 10.662 10.8444 10.071L8.01519 12.8986C7.95742 12.8408 7.88572 12.7474 7.83192 12.6183C7.77793 12.4887 7.76074 12.3683 7.76074 12.2789H11.7607ZM10.8436 10.0702C10.2526 9.47947 9.48127 9.15386 8.63574 9.15386V13.1539C8.5463 13.1539 8.42589 13.1367 8.29634 13.0827C8.16724 13.0289 8.0738 12.9572 8.01599 12.8994L10.8436 10.0702ZM8.63574 9.15386H1.88574V13.1539H8.63574V9.15386ZM3.88574 11.1539V10.4039H-0.114258V11.1539H3.88574ZM1.88574 12.4039H8.63574V8.40386H1.88574V12.4039ZM8.63574 12.4039C8.64787 12.4039 8.64754 12.4049 8.63745 12.403C8.62699 12.401 8.61143 12.3968 8.59342 12.3894C8.57539 12.382 8.56094 12.3737 8.55124 12.3671C8.54182 12.3607 8.54118 12.3589 8.54847 12.3661L11.3769 9.53771C10.6344 8.7952 9.6825 8.40386 8.63574 8.40386V12.4039ZM8.54847 12.3661C8.55575 12.3734 8.55388 12.3728 8.54749 12.3634C8.54091 12.3537 8.53264 12.3392 8.52519 12.3212C8.51775 12.3032 8.51362 12.2876 8.51164 12.2772C8.50972 12.2671 8.51074 12.2667 8.51074 12.2789H12.5107C12.5107 11.2321 12.1194 10.2802 11.3769 9.53771L8.54847 12.3661ZM8.51074 12.2789C8.51074 12.291 8.50972 12.2907 8.51164 12.2806C8.51362 12.2701 8.51776 12.2545 8.52519 12.2365C8.53264 12.2185 8.54091 12.2041 8.5475 12.1944C8.55388 12.1849 8.55575 12.1843 8.54847 12.1916L11.3769 15.02C12.1194 14.2775 12.5107 13.3256 12.5107 12.2789H8.51074ZM8.54847 12.1916C8.54118 12.1989 8.54182 12.197 8.55124 12.1906C8.56094 12.184 8.57539 12.1758 8.59342 12.1683C8.61143 12.1609 8.62699 12.1567 8.63745 12.1548C8.64754 12.1528 8.64787 12.1539 8.63574 12.1539V16.1539C9.6825 16.1539 10.6344 15.7625 11.3769 15.02L8.54847 12.1916ZM3.88574 6.99998V6.24998H-0.114258V6.99998H3.88574ZM1.88574 8.24998H11.6357V4.24998H1.88574V8.24998ZM11.6357 8.24998C12.57 8.24998 13.4391 7.90662 14.1156 7.23044L11.2878 4.4014C11.3187 4.37045 11.3784 4.32394 11.4638 4.28916C11.5481 4.25484 11.6131 4.24998 11.6357 4.24998V8.24998ZM14.1162 7.22983C14.7924 6.55336 15.1357 5.68429 15.1357 4.74998H11.1357C11.1357 4.72729 11.1406 4.6623 11.1749 4.57803C11.2097 4.49263 11.2562 4.43298 11.2872 4.40201L14.1162 7.22983ZM15.1357 4.74998C15.1357 3.81567 14.7924 2.94661 14.1162 2.27014L11.2872 5.09796C11.2562 5.06699 11.2097 5.00735 11.1749 4.92194C11.1406 4.83767 11.1357 4.77268 11.1357 4.74998H15.1357ZM14.1156 2.26953C13.4391 1.59335 12.5701 1.24998 11.6357 1.24998V5.24998C11.613 5.24998 11.5481 5.24513 11.4638 5.21081C11.3784 5.17603 11.3187 5.12952 11.2878 5.09857L14.1156 2.26953ZM11.6357 1.24998C10.8517 1.24998 10.0829 1.49088 9.43554 2.01897L11.9639 5.1185C11.9135 5.15962 11.8477 5.19776 11.7738 5.2229C11.702 5.24736 11.6509 5.24998 11.6357 5.24998V1.24998ZM9.4359 2.01867C8.83661 2.5073 8.42618 3.15797 8.2472 3.91461L12.1398 4.83536C12.1304 4.87513 12.1098 4.93218 12.0715 4.99321C12.0333 5.0541 11.992 5.09563 11.9636 5.1188L9.4359 2.01867ZM10.1935 2.37498H9.41462V6.37498H10.1935V2.37498ZM11.3899 4.68842C11.399 4.63104 11.4112 4.60914 11.4136 4.60482C11.4158 4.60088 11.4253 4.58358 11.4617 4.55269L8.87169 1.50441C8.08722 2.17093 7.59957 3.05173 7.43933 4.06155L11.3899 4.68842ZM11.4612 4.55311C11.4945 4.52482 11.5133 4.51726 11.5223 4.51402C11.5323 4.51042 11.5649 4.49998 11.6357 4.49998V0.499985C10.6161 0.499985 9.66286 0.832633 8.87218 1.50399L11.4612 4.55311ZM11.6357 4.49998C11.7184 4.49998 11.7504 4.51322 11.7548 4.51504C11.7582 4.5164 11.779 4.52408 11.8203 4.56539L14.6488 1.73696C13.8276 0.915766 12.7807 0.499985 11.6357 0.499985V4.49998ZM11.8203 4.56539C11.8616 4.60669 11.8693 4.62755 11.8707 4.63088C11.8725 4.63535 11.8857 4.66737 11.8857 4.74998H15.8857C15.8857 3.60501 15.47 2.55815 14.6488 1.73696L11.8203 4.56539ZM11.8857 4.74998C11.8857 4.8326 11.8725 4.86462 11.8707 4.86909C11.8693 4.87242 11.8616 4.89328 11.8203 4.93458L14.6488 7.76301C15.47 6.94182 15.8857 5.89496 15.8857 4.74998H11.8857ZM11.8203 4.93458C11.779 4.97589 11.7582 4.98357 11.7548 4.98493C11.7504 4.98675 11.7184 4.99998 11.6357 4.99998V8.99998C12.7807 8.99998 13.8276 8.58421 14.6488 7.76301L11.8203 4.93458ZM11.6357 4.99998H1.88574V8.99998H11.6357V4.99998ZM16.2607 12.798V12.0192H12.2607V12.798H16.2607ZM14.7211 13.9655C15.4778 13.7865 16.1284 13.3761 16.6171 12.7768L13.5169 10.2491C13.5401 10.2207 13.5816 10.1794 13.6425 10.1412C13.7035 10.1029 13.7606 10.0823 13.8004 10.0729L14.7211 13.9655ZM16.6168 12.7771C17.1449 12.1298 17.3857 11.361 17.3857 10.5769H13.3857C13.3857 10.5618 13.3884 10.5106 13.4128 10.4388C13.438 10.365 13.4761 10.2991 13.5172 10.2487L16.6168 12.7771ZM17.3857 10.5769C17.3857 9.64261 17.0424 8.77355 16.3662 8.09708L13.5372 10.9249C13.5062 10.8939 13.4597 10.8343 13.4249 10.7489C13.3906 10.6646 13.3857 10.5996 13.3857 10.5769H17.3857ZM16.3656 8.09647C15.6891 7.42029 14.8201 7.07692 13.8857 7.07692V11.0769C13.8631 11.0769 13.7981 11.0721 13.7138 11.0377C13.6284 11.003 13.5687 10.9565 13.5378 10.9255L16.3656 8.09647ZM13.8857 7.07692H1.88574V11.0769H13.8857V7.07692ZM3.88574 9.07692V8.32692H-0.114258V9.07692H3.88574ZM1.88574 10.3269H13.8857V6.32692H1.88574V10.3269ZM13.8857 10.3269C13.9684 10.3269 14.0004 10.3402 14.0048 10.342C14.0082 10.3433 14.029 10.351 14.0703 10.3923L16.8988 7.5639C16.0776 6.7427 15.0307 6.32692 13.8857 6.32692V10.3269ZM14.0703 10.3923C14.1116 10.4336 14.1193 10.4545 14.1207 10.4578C14.1225 10.4623 14.1357 10.4943 14.1357 10.5769H18.1357C18.1357 9.43195 17.72 8.38509 16.8988 7.5639L14.0703 10.3923ZM14.1357 10.5769C14.1357 10.6478 14.1253 10.6804 14.1217 10.6904C14.1185 10.6994 14.1109 10.7182 14.0826 10.7515L17.1317 13.3405C17.8031 12.5498 18.1357 11.5966 18.1357 10.5769H14.1357ZM14.0828 10.7513C14.0521 10.7875 14.0349 10.7969 14.031 10.7991C14.0268 10.8014 14.0049 10.8136 13.9474 10.8227L14.5741 14.7733C15.584 14.6131 16.465 14.1255 17.1315 13.3407L14.0828 10.7513Z" fill="#326DEC" mask="url(#path-2-inside-1_262_5326)"/>
</g>
</svg>
