<svg width="19" height="19" viewBox="0 0 19 19" fill="none" xmlns="http://www.w3.org/2000/svg">
<mask id="mask0_57_293" style="mask-type:alpha" maskUnits="userSpaceOnUse" x="0" y="0" width="19" height="19">
<rect x="0.5" y="0.5" width="18" height="18" fill="#D9D9D9"/>
</mask>
<g mask="url(#mask0_57_293)">
<path d="M8.75 14.6539C8.29812 14.6539 7.90388 14.5096 7.56725 14.2211C7.23075 13.9328 7.01925 13.577 6.93275 13.1539H7.71163C7.7885 13.376 7.92044 13.5565 8.10744 13.6954C8.29444 13.8344 8.50863 13.9039 8.75 13.9039C9.05863 13.9039 9.32331 13.7936 9.54406 13.5729C9.76469 13.3522 9.875 13.0875 9.875 12.7789C9.875 12.4703 9.76469 12.2056 9.54406 11.9848C9.32331 11.7642 9.05863 11.6539 8.75 11.6539H2V10.9039H8.75C9.26925 10.9039 9.71156 11.0866 10.0769 11.4519C10.4423 11.8173 10.625 12.2596 10.625 12.7789C10.625 13.2981 10.4423 13.7404 10.0769 14.1058C9.71156 14.4712 9.26925 14.6539 8.75 14.6539ZM2 7.5V6.75H11.75C12.1711 6.75 12.5264 6.60531 12.8159 6.31594C13.1053 6.02644 13.25 5.67112 13.25 5.25C13.25 4.82887 13.1053 4.47356 12.8159 4.18406C12.5264 3.89469 12.1711 3.75 11.75 3.75C11.3865 3.75 11.0745 3.85625 10.814 4.06875C10.5534 4.28125 10.3846 4.55 10.3078 4.875H9.52888C9.61538 4.32987 9.86606 3.88106 10.2809 3.52856C10.6959 3.17619 11.1856 3 11.75 3C12.3818 3 12.9147 3.21706 13.3488 3.65119C13.7829 4.08531 14 4.61825 14 5.25C14 5.88175 13.7829 6.41469 13.3488 6.84881C12.9147 7.28294 12.3818 7.5 11.75 7.5H2ZM14.375 13.2981V12.5192C14.7 12.4423 14.9688 12.2736 15.1813 12.0129C15.3938 11.7524 15.5 11.4404 15.5 11.0769C15.5 10.6558 15.3553 10.3005 15.0659 10.011C14.7764 9.72163 14.4211 9.57694 14 9.57694H2V8.82694H14C14.6318 8.82694 15.1647 9.044 15.5988 9.47813C16.0329 9.91225 16.25 10.4452 16.25 11.0769C16.25 11.6413 16.0738 12.131 15.7214 12.546C15.3691 12.9609 14.9202 13.2116 14.375 13.2981Z" fill="white"/>
</g>
</svg>
