<svg width="32" height="32" viewBox="0 0 32 32" fill="none" xmlns="http://www.w3.org/2000/svg">
<mask id="mask0_115_901" style="mask-type:alpha" maskUnits="userSpaceOnUse" x="0" y="0" width="32" height="32">
<rect width="32" height="32" fill="#D9D9D9"/>
</mask>
<g mask="url(#mask0_115_901)">
<path d="M5.33325 20C4.22214 20 3.2777 19.6111 2.49992 18.8334C1.72214 18.0556 1.33325 17.1111 1.33325 16C1.33325 14.8889 1.72214 13.9445 2.49992 13.1667C3.2777 12.3889 4.22214 12 5.33325 12V9.33335C5.33325 8.60002 5.59436 7.97224 6.11659 7.45002C6.63881 6.9278 7.26659 6.66669 7.99992 6.66669H11.9999C11.9999 5.55558 12.3888 4.61113 13.1666 3.83335C13.9444 3.05558 14.8888 2.66669 15.9999 2.66669C17.111 2.66669 18.0555 3.05558 18.8333 3.83335C19.611 4.61113 19.9999 5.55558 19.9999 6.66669H23.9999C24.7333 6.66669 25.361 6.9278 25.8833 7.45002C26.4055 7.97224 26.6666 8.60002 26.6666 9.33335V12C27.7777 12 28.7221 12.3889 29.4999 13.1667C30.2777 13.9445 30.6666 14.8889 30.6666 16C30.6666 17.1111 30.2777 18.0556 29.4999 18.8334C28.7221 19.6111 27.7777 20 26.6666 20V25.3334C26.6666 26.0667 26.4055 26.6945 25.8833 27.2167C25.361 27.7389 24.7333 28 23.9999 28H7.99992C7.26659 28 6.63881 27.7389 6.11659 27.2167C5.59436 26.6945 5.33325 26.0667 5.33325 25.3334V20ZM11.9999 17.3334C12.5555 17.3334 13.0277 17.1389 13.4166 16.75C13.8055 16.3611 13.9999 15.8889 13.9999 15.3334C13.9999 14.7778 13.8055 14.3056 13.4166 13.9167C13.0277 13.5278 12.5555 13.3334 11.9999 13.3334C11.4444 13.3334 10.9721 13.5278 10.5833 13.9167C10.1944 14.3056 9.99992 14.7778 9.99992 15.3334C9.99992 15.8889 10.1944 16.3611 10.5833 16.75C10.9721 17.1389 11.4444 17.3334 11.9999 17.3334ZM19.9999 17.3334C20.5555 17.3334 21.0277 17.1389 21.4166 16.75C21.8055 16.3611 21.9999 15.8889 21.9999 15.3334C21.9999 14.7778 21.8055 14.3056 21.4166 13.9167C21.0277 13.5278 20.5555 13.3334 19.9999 13.3334C19.4444 13.3334 18.9721 13.5278 18.5833 13.9167C18.1944 14.3056 17.9999 14.7778 17.9999 15.3334C17.9999 15.8889 18.1944 16.3611 18.5833 16.75C18.9721 17.1389 19.4444 17.3334 19.9999 17.3334ZM11.9999 22.6667H19.9999C20.3777 22.6667 20.6944 22.5389 20.9499 22.2834C21.2055 22.0278 21.3333 21.7111 21.3333 21.3334C21.3333 20.9556 21.2055 20.6389 20.9499 20.3834C20.6944 20.1278 20.3777 20 19.9999 20H11.9999C11.6221 20 11.3055 20.1278 11.0499 20.3834C10.7944 20.6389 10.6666 20.9556 10.6666 21.3334C10.6666 21.7111 10.7944 22.0278 11.0499 22.2834C11.3055 22.5389 11.6221 22.6667 11.9999 22.6667ZM7.99992 25.3334H23.9999V9.33335H7.99992V25.3334Z" fill="#494A4B"/>
</g>
</svg>
