<svg width="39" height="33" viewBox="0 0 39 33" fill="none" xmlns="http://www.w3.org/2000/svg">
<path d="M13.262 23.8512C13.262 23.8512 25.6177 23.9697 28.2928 23.1927C30.968 22.4158 30.9645 18.3836 28.2928 17.3897C25.6211 16.3957 24.708 19.9485 24.708 19.9485" stroke="#D0D0D0" stroke-width="1.80259" stroke-linecap="round"/>
<path d="M9.20825 27.9987C9.20825 27.9987 18.276 27.1794 22.2735 27.9987C26.271 28.818 24.9981 31.1683 23.1036 31.2757C21.209 31.3832 19.4608 30.1383 19.4608 30.1383" stroke="#D0D0D0" stroke-width="1.80259" stroke-linecap="round"/>
<path d="M28.5083 27.9927H32.1135" stroke="#D0D0D0" stroke-width="1.80259" stroke-linecap="round"/>
<path d="M10.4195 19.7459C15.3225 19.7459 19.2972 15.751 19.2972 10.8231C19.2972 5.89514 15.3225 1.90027 10.4195 1.90027C5.51644 1.90027 1.54175 5.89514 1.54175 10.8231C1.54175 15.751 5.51644 19.7459 10.4195 19.7459Z" fill="#FA9E42"/>
<g filter="url(#filter0_f_262_5654)">
<path d="M9.77796 9.55415C12.7285 7.98699 14.3788 5.32036 13.464 3.59806C12.5492 1.87576 9.41574 1.74998 6.46521 3.31714C3.51468 4.88429 1.86439 7.55093 2.77918 9.27323C3.69397 10.9955 6.82743 11.1213 9.77796 9.55415Z" fill="#F8E36F"/>
</g>
<g filter="url(#filter1_d_262_5654)">
<path d="M27.111 25.7846H9.85733C8.18359 25.7833 6.57523 25.1346 5.36895 23.9743C4.16267 22.814 3.452 21.2321 3.38571 19.5597C3.31941 17.8872 3.90265 16.254 5.0133 15.0019C6.12396 13.7497 7.67593 12.9758 9.34432 12.842C9.58224 11.162 10.3409 9.59887 11.5135 8.37251C12.6862 7.14614 14.2138 6.31828 15.8814 6.00539C17.5491 5.6925 19.2729 5.91032 20.8103 6.62822C22.3478 7.34611 23.6214 8.52795 24.4521 10.0075C25.9758 9.48002 27.622 9.4184 29.1808 9.83044C30.7397 10.2425 32.1404 11.1095 33.2044 12.321C34.2684 13.5324 34.9475 15.0333 35.1549 16.6323C35.3624 18.2312 35.0889 19.8557 34.3693 21.2986C33.9469 22.6022 33.1225 23.7385 32.0143 24.5444C30.9061 25.3503 29.5711 25.7845 28.2008 25.7846H27.111Z" fill="url(#paint0_linear_262_5654)"/>
<path d="M28.2009 25.6944C28.8967 25.6944 29.5807 25.5833 30.2341 25.3642C30.8659 25.1523 31.4591 24.8431 31.9972 24.4452C32.5291 24.0519 32.9953 23.5808 33.3829 23.0448C33.7754 22.5023 34.0784 21.9054 34.2836 21.2708L34.2857 21.2643L34.2888 21.2582C34.5616 20.7131 34.7717 20.1365 34.9132 19.5443C35.0588 18.935 35.1326 18.3054 35.1326 17.6729C35.1326 17.1286 35.0778 16.5847 34.9696 16.0562C34.8643 15.5412 34.707 15.0347 34.5023 14.5506C34.3012 14.0753 34.0524 13.6169 33.7627 13.1881C33.4757 12.7633 33.1462 12.3639 32.7832 12.0008C32.4201 11.6378 32.0207 11.3083 31.5959 11.0213C31.1671 10.7316 30.7087 10.4828 30.2334 10.2817C29.7493 10.077 29.2428 9.91973 28.7278 9.81435C28.1993 9.70621 27.6554 9.65138 27.1111 9.65138C26.2099 9.65138 25.3252 9.7997 24.4818 10.0922L24.4106 10.1169L24.3737 10.0512C23.6873 8.83073 22.6888 7.80573 21.4863 7.08705C20.8781 6.7236 20.2248 6.44273 19.5443 6.25226C18.8424 6.05576 18.1132 5.95613 17.3771 5.95613C16.3871 5.95613 15.4207 6.13431 14.5047 6.48573C13.6198 6.82521 12.808 7.31561 12.092 7.9433C11.38 8.56737 10.7892 9.30372 10.3359 10.1319C9.87146 10.9804 9.56791 11.8963 9.43368 12.8542L9.42364 12.9259L9.35146 12.9315C8.54406 12.9947 7.76725 13.2073 7.0426 13.5633C6.33847 13.9093 5.70971 14.3772 5.17379 14.9541C4.07257 16.1396 3.46611 17.684 3.46611 19.3031C3.46611 20.1659 3.63508 21.0029 3.96833 21.7908C4.12851 22.1695 4.32676 22.5348 4.55759 22.8765C4.78625 23.2149 5.04884 23.5332 5.33808 23.8224C5.62732 24.1117 5.9456 24.3743 6.28404 24.6029C6.62572 24.8337 6.99097 25.032 7.36966 25.1922C8.15756 25.5254 8.99456 25.6944 9.85742 25.6944H27.1111H28.2009ZM28.2009 25.7845H27.1111H9.85742C6.27783 25.7845 3.37598 22.8827 3.37598 19.3031C3.37598 15.8961 6.00456 13.1031 9.34442 12.8417C9.89687 8.89951 13.2827 5.866 17.3771 5.866C20.4147 5.866 23.0622 7.53547 24.4522 10.0071C25.2852 9.71818 26.1798 9.56125 27.1111 9.56125C31.591 9.56125 35.2227 13.193 35.2227 17.6729C35.2227 18.9761 34.9155 20.2074 34.3694 21.2985C33.5278 23.9017 31.0842 25.7845 28.2009 25.7845Z" fill="white" fill-opacity="0.5"/>
</g>
<defs>
<filter id="filter0_f_262_5654" x="0.72427" y="0.416744" width="14.7946" height="12.0378" filterUnits="userSpaceOnUse" color-interpolation-filters="sRGB">
<feFlood flood-opacity="0" result="BackgroundImageFix"/>
<feBlend mode="normal" in="SourceGraphic" in2="BackgroundImageFix" result="shape"/>
<feGaussianBlur stdDeviation="0.901293" result="effect1_foregroundBlur_262_5654"/>
</filter>
<filter id="filter1_d_262_5654" x="1.57339" y="3.34238" width="37.2544" height="25.3263" filterUnits="userSpaceOnUse" color-interpolation-filters="sRGB">
<feFlood flood-opacity="0" result="BackgroundImageFix"/>
<feColorMatrix in="SourceAlpha" type="matrix" values="0 0 0 0 0 0 0 0 0 0 0 0 0 0 0 0 0 0 127 0" result="hardAlpha"/>
<feOffset dx="0.901293" dy="0.180259"/>
<feGaussianBlur stdDeviation="1.35194"/>
<feColorMatrix type="matrix" values="0 0 0 0 0.258824 0 0 0 0 0.627451 0 0 0 0 0.941176 0 0 0 0.596 0"/>
<feBlend mode="normal" in2="BackgroundImageFix" result="effect1_dropShadow_262_5654"/>
<feBlend mode="normal" in="SourceGraphic" in2="effect1_dropShadow_262_5654" result="shape"/>
</filter>
<linearGradient id="paint0_linear_262_5654" x1="19.3015" y1="5.86624" x2="28.5526" y2="28.2331" gradientUnits="userSpaceOnUse">
<stop stop-color="white" stop-opacity="0.604"/>
<stop offset="1" stop-color="white" stop-opacity="0.2"/>
</linearGradient>
</defs>
</svg>
