<svg width="320" height="343" viewBox="0 0 320 343" fill="none" xmlns="http://www.w3.org/2000/svg">
<path d="M408.401 343H111.465C82.6597 342.978 54.9797 331.807 34.2195 311.827C13.4593 291.846 1.22849 264.605 0.0876115 235.805C-1.05327 207.005 8.98419 178.88 28.0987 157.318C47.2132 135.756 73.9227 122.428 102.636 120.125C106.73 91.1948 119.787 64.277 139.968 43.1587C160.149 22.0403 186.439 7.7843 215.14 2.39618C243.841 -2.99193 273.508 0.759055 299.967 13.1214C326.426 25.4838 348.346 45.8354 362.643 71.313C388.865 62.2304 417.197 61.1692 444.024 68.2647C470.852 75.3602 494.959 90.2908 513.27 111.152C531.582 132.013 543.268 157.86 546.839 185.394C550.409 212.929 545.702 240.903 533.317 265.75C526.049 288.198 511.861 307.765 492.789 321.644C473.716 335.522 450.74 342.999 427.158 343H408.401Z" fill="url(#paint0_linear_115_676)"/>
<defs>
<linearGradient id="paint0_linear_115_676" x1="274" y1="0" x2="433.374" y2="385.097" gradientUnits="userSpaceOnUse">
<stop stop-color="#DCEAFD"/>
<stop offset="1" stop-color="#DAE7FC"/>
</linearGradient>
</defs>
</svg>
