<svg width="21" height="21" viewBox="0 0 21 21" fill="none" xmlns="http://www.w3.org/2000/svg">
<mask id="mask0_262_5277" style="mask-type:luminance" maskUnits="userSpaceOnUse" x="0" y="0" width="21" height="21">
<path d="M0.633789 0.181824H20.6338V20.1818H0.633789V0.181824Z" fill="white"/>
</mask>
<g mask="url(#mask0_262_5277)">
<mask id="mask1_262_5277" style="mask-type:luminance" maskUnits="userSpaceOnUse" x="0" y="0" width="21" height="21">
<path d="M0.633789 0.181824H20.6338V20.1818H0.633789V0.181824Z" fill="white"/>
</mask>
<g mask="url(#mask1_262_5277)">
<path d="M16.8838 12.6822C16.8838 13.6128 16.7394 14.4641 16.4507 15.2363C16.1614 16.0102 15.7387 16.6752 15.1827 17.2312C14.6267 17.7872 13.9618 18.2099 13.1879 18.4992C12.4157 18.7879 11.5643 18.9322 10.6338 18.9322C9.70326 18.9322 8.8519 18.7879 8.07971 18.4992C7.30582 18.2099 6.64087 17.7872 6.08487 17.2312C5.52886 16.6752 5.10618 16.0102 4.81684 15.2363C4.52814 14.4641 4.38379 13.6128 4.38379 12.6822C4.38379 10.9738 5.13817 8.89062 6.64694 6.43282C7.54238 4.97414 8.59436 3.53805 9.80289 2.12454C10.0214 1.86939 10.2984 1.74182 10.634 1.74182C10.9696 1.74182 11.2465 1.86928 11.4648 2.12419C12.6738 3.53873 13.7258 4.97494 14.6207 6.43283C16.1294 8.89067 16.8838 10.9738 16.8838 12.6822ZM15.6338 12.6822C15.6338 11.2092 14.941 9.34402 13.5554 7.08676C12.6947 5.68463 11.6813 4.30144 10.5153 2.9372C10.5465 2.97361 10.586 2.99182 10.634 2.99182C10.6819 2.99182 10.7216 2.9735 10.753 2.93684C9.587 4.30058 8.57342 5.68389 7.71224 7.08677C6.32661 9.34398 5.63379 11.2091 5.63379 12.6822C5.63379 13.4621 5.75175 14.1676 5.98769 14.7986C6.21366 15.403 6.54068 15.9193 6.96875 16.3473C7.39681 16.7754 7.91305 17.1024 8.51747 17.3283C9.1485 17.5643 9.85394 17.6822 10.6338 17.6822C11.4136 17.6822 12.1191 17.5643 12.7501 17.3283C13.3545 17.1024 13.8708 16.7754 14.2988 16.3473C14.7269 15.9193 15.0539 15.403 15.2799 14.7986C15.5158 14.1676 15.6338 13.4621 15.6338 12.6822Z" fill="#2563EB"/>
<path fill-rule="evenodd" clip-rule="evenodd" d="M14.0713 12.3688C13.7261 12.3688 13.4463 12.6487 13.4463 12.9938C13.4463 13.5979 13.2327 14.1135 12.8056 14.5406C12.3785 14.9678 11.8629 15.1813 11.2588 15.1813C10.9136 15.1813 10.6338 15.4612 10.6338 15.8063C10.6338 16.1515 10.9136 16.4313 11.2588 16.4313C12.208 16.4313 13.0183 16.0957 13.6895 15.4245C14.3607 14.7533 14.6963 13.9431 14.6963 12.9938C14.6963 12.6487 14.4165 12.3688 14.0713 12.3688Z" fill="#2563EB"/>
</g>
</g>
</svg>
