<svg width="19" height="19" viewBox="0 0 19 19" fill="none" xmlns="http://www.w3.org/2000/svg">
<mask id="mask0_57_303" style="mask-type:alpha" maskUnits="userSpaceOnUse" x="0" y="0" width="19" height="19">
<rect x="0.5" y="0.5" width="18" height="18" fill="#D9D9D9"/>
</mask>
<g mask="url(#mask0_57_303)">
<path d="M11.0848 13.3366C11.2926 13.3366 11.4699 13.2639 11.6165 13.1184C11.7633 12.9727 11.8366 12.7961 11.8366 12.5883C11.8366 12.3804 11.7639 12.2032 11.6184 12.0566C11.4728 11.9099 11.2961 11.8366 11.0883 11.8366C10.8804 11.8366 10.7032 11.9094 10.5566 12.0549C10.4099 12.2004 10.3366 12.377 10.3366 12.5847C10.3366 12.7926 10.4094 12.9699 10.5549 13.1165C10.7004 13.2632 10.877 13.3366 11.0848 13.3366ZM7.5875 13.4289L11.9289 9.08749L11.4125 8.55668L7.05669 12.9125L7.5875 13.4289ZM7.91169 10.1634C8.11956 10.1634 8.29681 10.0906 8.44344 9.94512C8.59006 9.79962 8.66337 9.62299 8.66337 9.41524C8.66337 9.20737 8.59062 9.03012 8.44512 8.88349C8.29962 8.73674 8.123 8.66337 7.91525 8.66337C7.70738 8.66337 7.53012 8.73612 7.3835 8.88162C7.23675 9.02724 7.16338 9.20393 7.16338 9.41168C7.16338 9.61956 7.23612 9.7968 7.38162 9.94343C7.52725 10.0901 7.70394 10.1634 7.91169 10.1634ZM9.49737 16.25C7.99812 16.25 6.74875 15.7341 5.74925 14.7024C4.74975 13.6707 4.25 12.3866 4.25 10.85C4.25 9.77312 4.68438 8.58199 5.55313 7.27662C6.42188 5.97137 7.7375 4.53943 9.5 2.9808C11.2625 4.53943 12.5781 5.97137 13.4469 7.27662C14.3156 8.58199 14.75 9.77312 14.75 10.85C14.75 12.3866 14.2494 13.6707 13.2481 14.7024C12.2468 15.7341 10.9965 16.25 9.49737 16.25ZM9.5 15.5C10.8 15.5 11.875 15.0594 12.725 14.1781C13.575 13.2969 14 12.1875 14 10.85C14 9.93749 13.6219 8.90624 12.8656 7.75624C12.1094 6.60624 10.9875 5.34999 9.5 3.98749C8.0125 5.34999 6.89062 6.60624 6.13438 7.75624C5.37813 8.90624 5 9.93749 5 10.85C5 12.1875 5.425 13.2969 6.275 14.1781C7.125 15.0594 8.2 15.5 9.5 15.5Z" fill="white"/>
</g>
</svg>
