<svg width="40" height="40" viewBox="0 0 40 40" fill="none" xmlns="http://www.w3.org/2000/svg">
<rect width="40" height="40" rx="20" fill="black"/>
<mask id="mask0_115_1766" style="mask-type:alpha" maskUnits="userSpaceOnUse" x="7" y="7" width="26" height="26">
<rect x="7" y="7" width="26" height="26" fill="#D9D9D9"/>
</mask>
<g mask="url(#mask0_115_1766)">
<path d="M11.7667 28.0438C11.4056 28.1882 11.0625 28.1566 10.7375 27.949C10.4125 27.7413 10.25 27.4389 10.25 27.0417V22.1667L18.9167 20L10.25 17.8333V12.9583C10.25 12.5611 10.4125 12.2587 10.7375 12.051C11.0625 11.8434 11.4056 11.8118 11.7667 11.9563L28.45 18.9979C28.9014 19.1965 29.1271 19.5306 29.1271 20C29.1271 20.4694 28.9014 20.8035 28.45 21.0021L11.7667 28.0438Z" fill="white"/>
</g>
</svg>
