<svg width="41" height="33" viewBox="0 0 41 33" fill="none" xmlns="http://www.w3.org/2000/svg">
<path d="M15.017 16.6312C15.3947 16.6354 19.2259 22.6174 19.2259 24.9419C19.2259 26.0582 18.7825 27.1288 17.9932 27.9181C17.2039 28.7074 16.1333 29.1508 15.017 29.1508C13.9008 29.1508 12.8302 28.7074 12.0409 27.9181C11.2515 27.1288 10.8081 26.0582 10.8081 24.9419C10.8081 22.6174 14.6394 16.627 15.017 16.6312Z" fill="#42A0F0"/>
<path d="M11.8079 26.5153C12.2284 26.6439 12.7629 26.1149 13.0017 25.3339C13.2405 24.5528 13.0932 23.8154 12.6726 23.6868C12.2521 23.5582 11.7176 24.0872 11.4788 24.8683C11.24 25.6493 11.3873 26.3867 11.8079 26.5153Z" fill="white"/>
<path d="M24.9326 24.5198C25.1705 24.5226 27.5846 28.2917 27.5846 29.7564C27.5804 30.4569 27.2991 31.1274 26.8022 31.6213C26.3053 32.1152 25.6332 32.3924 24.9326 32.3924C24.2319 32.3924 23.5598 32.1152 23.0629 31.6213C22.566 31.1274 22.2847 30.4569 22.2805 29.7564C22.2805 28.2917 24.6946 24.5172 24.9326 24.5198Z" fill="#42A0F0"/>
<path d="M22.9106 30.7477C23.1755 30.8287 23.5123 30.4955 23.6628 30.0033C23.8132 29.5112 23.7204 29.0466 23.4554 28.9656C23.1904 28.8846 22.8536 29.2178 22.7032 29.71C22.5527 30.2021 22.6456 30.6667 22.9106 30.7477Z" fill="white"/>
<g filter="url(#filter0_d_262_5613)">
<path d="M27.537 24.4999H9.06265C7.27049 24.4985 5.54833 23.8039 4.2567 22.5615C2.96507 21.3191 2.20412 19.6253 2.13314 17.8345C2.06215 16.0437 2.68665 14.295 3.87589 12.9542C5.06513 11.6135 6.7269 10.7848 8.51333 10.6416C8.76809 8.8427 9.58041 7.16896 10.836 5.85583C12.0916 4.5427 13.7273 3.65627 15.513 3.32124C17.2986 2.9862 19.1444 3.21944 20.7906 3.98813C22.4368 4.75681 23.8006 6.02227 24.6901 7.60646C26.3215 7.04172 28.0842 6.97572 29.7532 7.41689C31.4223 7.85805 32.9222 8.78639 34.0615 10.0835C35.2008 11.3806 35.9279 12.9876 36.1501 14.6997C36.3723 16.4117 36.0795 18.1511 35.309 19.6961C34.8569 21.092 33.9742 22.3088 32.7875 23.1719C31.6009 24.0349 30.1713 24.4998 28.704 24.4999H27.537Z" fill="url(#paint0_linear_262_5613)"/>
<path d="M28.7039 24.4033C29.449 24.4033 30.1815 24.2843 30.8812 24.0497C31.5578 23.8228 32.1929 23.4917 32.7691 23.0657C33.3386 22.6445 33.8378 22.1399 34.2529 21.5661C34.6731 20.985 34.9976 20.3459 35.2172 19.6663L35.2194 19.6594L35.2227 19.6528C35.5147 19.0692 35.7396 18.4518 35.8911 17.8178C36.047 17.1654 36.126 16.4913 36.126 15.8142C36.126 15.2314 36.0673 14.649 35.9515 14.0831C35.8387 13.5317 35.6703 12.9893 35.4511 12.471C35.2359 11.9621 34.9694 11.4713 34.6592 11.0121C34.352 10.5573 33.9991 10.1296 33.6104 9.74087C33.2217 9.35217 32.794 8.99928 32.3392 8.692C31.88 8.3818 31.3892 8.11537 30.8802 7.90011C30.3619 7.68089 29.8195 7.51251 29.2681 7.39968C28.7023 7.28389 28.1198 7.22518 27.537 7.22518C26.572 7.22518 25.6248 7.38399 24.7216 7.69721L24.6454 7.72364L24.6059 7.65334C23.8709 6.34647 22.8018 5.24894 21.5142 4.47942C20.863 4.09025 20.1634 3.78951 19.4349 3.58557C18.6832 3.37516 17.9025 3.26847 17.1143 3.26847C16.0542 3.26847 15.0194 3.45927 14.0386 3.83555C13.0911 4.19905 12.2219 4.72414 11.4552 5.39624C10.6929 6.06447 10.0603 6.85292 9.57489 7.73968C9.07761 8.64822 8.75259 9.62893 8.60886 10.6546L8.5981 10.7313L8.52082 10.7374C7.65629 10.805 6.82452 11.0327 6.0486 11.4139C5.29465 11.7843 4.62141 12.2854 4.04757 12.9031C2.86844 14.1724 2.21906 15.8262 2.21906 17.5598C2.21906 18.4837 2.39999 19.3799 2.75682 20.2235C2.92833 20.629 3.14061 21.0201 3.38778 21.386C3.63261 21.7484 3.91378 22.0891 4.22349 22.3988C4.53319 22.7086 4.87398 22.9897 5.23638 23.2346C5.60223 23.4817 5.99332 23.694 6.39881 23.8655C7.24245 24.2223 8.13867 24.4033 9.06257 24.4033H27.537H28.7039ZM28.7039 24.4998H27.537H9.06257C5.22973 24.4998 2.12256 21.3926 2.12256 17.5598C2.12256 13.9117 4.93713 10.9211 8.51329 10.6412C9.10482 6.42011 12.7302 3.17197 17.1143 3.17197C20.3668 3.17197 23.2017 4.95957 24.69 7.60604C25.5819 7.2967 26.5398 7.12867 27.537 7.12867C32.3339 7.12867 36.2226 11.0174 36.2226 15.8142C36.2226 17.2093 35.8935 18.5279 35.309 19.696C34.4081 22.4836 31.7915 24.4998 28.7039 24.4998Z" fill="white" fill-opacity="0.5"/>
</g>
<defs>
<filter id="filter0_d_262_5613" x="0.192436" y="0.469795" width="39.8905" height="27.1182" filterUnits="userSpaceOnUse" color-interpolation-filters="sRGB">
<feFlood flood-opacity="0" result="BackgroundImageFix"/>
<feColorMatrix in="SourceAlpha" type="matrix" values="0 0 0 0 0 0 0 0 0 0 0 0 0 0 0 0 0 0 127 0" result="hardAlpha"/>
<feOffset dx="0.965061" dy="0.193012"/>
<feGaussianBlur stdDeviation="1.44759"/>
<feColorMatrix type="matrix" values="0 0 0 0 0.258824 0 0 0 0 0.627451 0 0 0 0 0.941176 0 0 0 0.596 0"/>
<feBlend mode="normal" in2="BackgroundImageFix" result="effect1_dropShadow_262_5613"/>
<feBlend mode="normal" in="SourceGraphic" in2="effect1_dropShadow_262_5613" result="shape"/>
</filter>
<linearGradient id="paint0_linear_262_5613" x1="19.175" y1="3.17224" x2="29.0807" y2="27.1216" gradientUnits="userSpaceOnUse">
<stop stop-color="white" stop-opacity="0.604"/>
<stop offset="1" stop-color="white" stop-opacity="0.2"/>
</linearGradient>
</defs>
</svg>
