<svg width="27" height="29" viewBox="0 0 27 29" fill="none" xmlns="http://www.w3.org/2000/svg">
<path d="M2.66667 3.33334V11.3667V11.3333V24.6667V3.33334ZM2.66667 27.3333C1.93333 27.3333 1.30556 27.0722 0.783333 26.55C0.261111 26.0278 0 25.4 0 24.6667V3.33334C0 2.60001 0.261111 1.97223 0.783333 1.45001C1.30556 0.927783 1.93333 0.666672 2.66667 0.666672H12.2333C12.5889 0.666672 12.9278 0.733338 13.25 0.866672C13.5722 1.00001 13.8556 1.18889 14.1 1.43334L20.5667 7.90001C20.8111 8.14445 21 8.42778 21.1333 8.75001C21.2667 9.07223 21.3333 9.41112 21.3333 9.76667V10.7C21.3333 11.0778 21.2056 11.3889 20.95 11.6333C20.6944 11.8778 20.3778 12 20 12C19.6222 12 19.3056 11.8722 19.05 11.6167C18.7944 11.3611 18.6667 11.0444 18.6667 10.6667V10H13.3333C12.9556 10 12.6389 9.87223 12.3833 9.61667C12.1278 9.36112 12 9.04445 12 8.66667V3.33334H2.66667V24.6667H10C10.3778 24.6667 10.6944 24.7945 10.95 25.05C11.2056 25.3056 11.3333 25.6222 11.3333 26C11.3333 26.3778 11.2056 26.6945 10.95 26.95C10.6944 27.2056 10.3778 27.3333 10 27.3333H2.66667ZM18 23.3333C18.9333 23.3333 19.7222 23.0111 20.3667 22.3667C21.0111 21.7222 21.3333 20.9333 21.3333 20C21.3333 19.0667 21.0111 18.2778 20.3667 17.6333C19.7222 16.9889 18.9333 16.6667 18 16.6667C17.0667 16.6667 16.2778 16.9889 15.6333 17.6333C14.9889 18.2778 14.6667 19.0667 14.6667 20C14.6667 20.9333 14.9889 21.7222 15.6333 22.3667C16.2778 23.0111 17.0667 23.3333 18 23.3333ZM25.7333 27.7333C25.4889 27.9778 25.1778 28.1 24.8 28.1C24.4222 28.1 24.1111 27.9778 23.8667 27.7333L21.2 25.0667C20.7333 25.3778 20.2278 25.6111 19.6833 25.7667C19.1389 25.9222 18.5778 26 18 26C16.3333 26 14.9167 25.4167 13.75 24.25C12.5833 23.0833 12 21.6667 12 20C12 18.3333 12.5833 16.9167 13.75 15.75C14.9167 14.5833 16.3333 14 18 14C19.6667 14 21.0833 14.5833 22.25 15.75C23.4167 16.9167 24 18.3333 24 20C24 20.5778 23.9222 21.1389 23.7667 21.6833C23.6111 22.2278 23.3778 22.7333 23.0667 23.2L25.7333 25.8667C25.9778 26.1111 26.1 26.4222 26.1 26.8C26.1 27.1778 25.9778 27.4889 25.7333 27.7333Z" fill="#494A4B"/>
</svg>
