<svg width="32" height="32" viewBox="0 0 32 32" fill="none" xmlns="http://www.w3.org/2000/svg">
<mask id="mask0_95_198" style="mask-type:alpha" maskUnits="userSpaceOnUse" x="0" y="0" width="32" height="32">
<rect width="32" height="32" fill="#D9D9D9"/>
</mask>
<g mask="url(#mask0_95_198)">
<path d="M22 25.3333C22.9333 25.3333 23.7222 25.0111 24.3667 24.3667C25.0111 23.7222 25.3333 22.9333 25.3333 22C25.3333 21.0667 25.0111 20.2778 24.3667 19.6333C23.7222 18.9889 22.9333 18.6667 22 18.6667C21.0667 18.6667 20.2778 18.9889 19.6333 19.6333C18.9889 20.2778 18.6667 21.0667 18.6667 22C18.6667 22.9333 18.9889 23.7222 19.6333 24.3667C20.2778 25.0111 21.0667 25.3333 22 25.3333ZM29.7333 29.7333C29.4889 29.9778 29.1778 30.1 28.8 30.1C28.4222 30.1 28.1111 29.9778 27.8667 29.7333L25.2 27.0667C24.7333 27.3778 24.2278 27.6111 23.6833 27.7667C23.1389 27.9222 22.5778 28 22 28C20.3333 28 18.9167 27.4167 17.75 26.25C16.5833 25.0833 16 23.6667 16 22C16 20.3333 16.5833 18.9167 17.75 17.75C18.9167 16.5833 20.3333 16 22 16C23.6667 16 25.0833 16.5833 26.25 17.75C27.4167 18.9167 28 20.3333 28 22C28 22.5778 27.9222 23.1389 27.7667 23.6833C27.6111 24.2278 27.3778 24.7333 27.0667 25.2L29.7333 27.8667C29.9778 28.1111 30.1 28.4222 30.1 28.8C30.1 29.1778 29.9778 29.4889 29.7333 29.7333ZM6.66667 29.3333C5.93333 29.3333 5.30556 29.0722 4.78333 28.55C4.26111 28.0278 4 27.4 4 26.6667V5.33332C4 4.59999 4.26111 3.97221 4.78333 3.44999C5.30556 2.92777 5.93333 2.66666 6.66667 2.66666H16.2333C16.5889 2.66666 16.9278 2.73332 17.25 2.86666C17.5722 2.99999 17.8556 3.18888 18.1 3.43332L24.5667 9.89999C24.8111 10.1444 25 10.4278 25.1333 10.75C25.2667 11.0722 25.3333 11.4111 25.3333 11.7667V12.3667C25.3333 12.7667 25.1722 13.0889 24.85 13.3333C24.5278 13.5778 24.1667 13.6444 23.7667 13.5333C23.4778 13.4667 23.1889 13.4167 22.9 13.3833C22.6111 13.35 22.3111 13.3333 22 13.3333C19.3778 13.3333 17.2667 14.2222 15.6667 16C14.0667 17.7778 13.2667 19.7889 13.2667 22.0333C13.2667 23.0111 13.4389 23.9778 13.7833 24.9333C14.1278 25.8889 14.6667 26.7889 15.4 27.6333C15.7111 27.9667 15.7833 28.3333 15.6167 28.7333C15.45 29.1333 15.1667 29.3333 14.7667 29.3333H6.66667ZM16 5.33332V10.6667C16 11.0444 16.1278 11.3611 16.3833 11.6167C16.6389 11.8722 16.9556 12 17.3333 12H22.6667L16 5.33332Z" fill="#0B558A"/>
</g>
</svg>
