<svg width="18" height="19" viewBox="0 0 18 19" fill="none" xmlns="http://www.w3.org/2000/svg">
<mask id="mask0_115_285" style="mask-type:alpha" maskUnits="userSpaceOnUse" x="0" y="0" width="18" height="19">
<rect y="0.5" width="18" height="18" fill="#D9D9D9"/>
</mask>
<g mask="url(#mask0_115_285)">
<path d="M9.82219 16.9856L9 16.1634L9.82219 15.3414L10.6442 16.1634L9.82219 16.9856ZM7.23469 15.8606L6.75 15.3759L8.65969 13.4664L9.14419 13.9509L7.23469 15.8606ZM12.0722 14.7356L11.25 13.9134L12.0722 13.0914L12.8942 13.9134L12.0722 14.7356ZM5.32219 14.7356L4.5 13.9134L5.32219 13.0914L6.14419 13.9134L5.32219 14.7356ZM5.625 12.125C4.58362 12.125 3.69831 11.7603 2.96906 11.0309C2.23969 10.3017 1.875 9.41638 1.875 8.375C1.875 7.40475 2.20194 6.56581 2.85581 5.85819C3.50969 5.15044 4.32844 4.74225 5.31206 4.63363C5.68319 3.93075 6.19156 3.37862 6.83719 2.97725C7.48294 2.57575 8.20388 2.375 9 2.375C10.0769 2.375 11.0021 2.732 11.7757 3.446C12.5492 4.15987 12.9995 5.0495 13.1265 6.11488C14.0466 6.17063 14.7764 6.49081 15.3159 7.07544C15.8553 7.66006 16.125 8.34325 16.125 9.125C16.125 9.95675 15.8329 10.6647 15.2488 11.2488C14.6647 11.8329 13.9567 12.125 13.125 12.125H5.625ZM5.625 11.375H13.125C13.7461 11.375 14.2764 11.1553 14.7159 10.7159C15.1553 10.2764 15.375 9.74613 15.375 9.125C15.375 8.50387 15.1553 7.97356 14.7159 7.53406C14.2764 7.09469 13.7461 6.875 13.125 6.875H12.375V6.5C12.375 5.56925 12.0452 4.77406 11.3856 4.11444C10.7259 3.45481 9.93075 3.125 9 3.125C8.32312 3.125 7.70656 3.30913 7.15031 3.67738C6.59406 4.04563 6.1765 4.53844 5.89762 5.15581L5.811 5.375H5.5875C4.76925 5.4 4.07094 5.70169 3.49256 6.28006C2.91419 6.85844 2.625 7.55675 2.625 8.375C2.625 9.20575 2.91731 9.91344 3.50194 10.4981C4.08656 11.0827 4.79425 11.375 5.625 11.375Z" fill="white"/>
</g>
</svg>
