<svg width="32" height="32" viewBox="0 0 32 32" fill="none" xmlns="http://www.w3.org/2000/svg">
<mask id="mask0_92_144" style="mask-type:alpha" maskUnits="userSpaceOnUse" x="0" y="0" width="32" height="32">
<rect width="32" height="32" fill="#D9D9D9"/>
</mask>
<g mask="url(#mask0_92_144)">
<path d="M24.4667 26.3667L22.6 24.4667C22.3555 24.2 22.2333 23.8833 22.2333 23.5167C22.2333 23.15 22.3555 22.8444 22.6 22.6C22.8444 22.3556 23.15 22.2333 23.5167 22.2333C23.8833 22.2333 24.2 22.3556 24.4667 22.6L26.3667 24.4667C26.6333 24.7333 26.7667 25.05 26.7667 25.4167C26.7667 25.7833 26.6333 26.1 26.3667 26.3667C26.1 26.6333 25.7833 26.7667 25.4167 26.7667C25.05 26.7667 24.7333 26.6333 24.4667 26.3667ZM7.99999 26.6667C6.53332 26.6667 5.27777 26.1444 4.23332 25.1C3.18888 24.0556 2.66666 22.8 2.66666 21.3333C2.66666 19.8667 3.18888 18.6111 4.23332 17.5667C5.27777 16.5222 6.53332 16 7.99999 16C9.06666 16 10.05 16.2889 10.95 16.8667C11.85 17.4444 12.5 18.2333 12.9 19.2333L13.2333 20H14.0333C14.9667 20 15.75 20.3222 16.3833 20.9667C17.0167 21.6111 17.3333 22.4 17.3333 23.3333C17.3333 24.2667 17.0111 25.0556 16.3667 25.7C15.7222 26.3444 14.9333 26.6667 14 26.6667H7.99999ZM19.9667 22.9333C19.8778 21.5333 19.3722 20.3222 18.45 19.3C17.5278 18.2778 16.3667 17.6444 14.9667 17.4C14.2778 16.2 13.35 15.25 12.1833 14.55C11.0167 13.85 9.73332 13.4444 8.33332 13.3333C8.9111 11.7111 9.89999 10.4167 11.3 9.45C12.7 8.48333 14.2667 8 16 8C18.2222 8 20.1111 8.77777 21.6667 10.3333C23.2222 11.8889 24 13.7778 24 16C24 17.4444 23.6444 18.7833 22.9333 20.0167C22.2222 21.25 21.2333 22.2222 19.9667 22.9333ZM26.6667 17.3333C26.2889 17.3333 25.9722 17.2056 25.7167 16.95C25.4611 16.6944 25.3333 16.3778 25.3333 16C25.3333 15.6222 25.4611 15.3056 25.7167 15.05C25.9722 14.7944 26.2889 14.6667 26.6667 14.6667H29.3333C29.7111 14.6667 30.0278 14.7944 30.2833 15.05C30.5389 15.3056 30.6667 15.6222 30.6667 16C30.6667 16.3778 30.5389 16.6944 30.2833 16.95C30.0278 17.2056 29.7111 17.3333 29.3333 17.3333H26.6667ZM7.53332 9.4L5.63332 7.5C5.38888 7.25555 5.26666 6.94444 5.26666 6.56666C5.26666 6.18888 5.38888 5.87777 5.63332 5.63333C5.89999 5.36666 6.21666 5.23333 6.58332 5.23333C6.94999 5.23333 7.26666 5.36666 7.53332 5.63333L9.39999 7.53333C9.64443 7.8 9.76666 8.11666 9.76666 8.48333C9.76666 8.85 9.64443 9.15555 9.39999 9.4C9.15555 9.64444 8.84443 9.76666 8.46666 9.76666C8.08888 9.76666 7.77777 9.64444 7.53332 9.4ZM22.6 9.4C22.3555 9.15555 22.2333 8.85 22.2333 8.48333C22.2333 8.11666 22.3555 7.8 22.6 7.53333L24.4667 5.63333C24.7333 5.36666 25.05 5.23333 25.4167 5.23333C25.7833 5.23333 26.1 5.36666 26.3667 5.63333C26.6111 5.87777 26.7333 6.18888 26.7333 6.56666C26.7333 6.94444 26.6111 7.25555 26.3667 7.5L24.4667 9.4C24.2222 9.64444 23.9111 9.76666 23.5333 9.76666C23.1555 9.76666 22.8444 9.64444 22.6 9.4ZM16 6.66666C15.6222 6.66666 15.3055 6.53888 15.05 6.28333C14.7944 6.02777 14.6667 5.71111 14.6667 5.33333V2.66666C14.6667 2.28888 14.7944 1.97222 15.05 1.71666C15.3055 1.46111 15.6222 1.33333 16 1.33333C16.3778 1.33333 16.6944 1.46111 16.95 1.71666C17.2055 1.97222 17.3333 2.28888 17.3333 2.66666V5.33333C17.3333 5.71111 17.2055 6.02777 16.95 6.28333C16.6944 6.53888 16.3778 6.66666 16 6.66666Z" fill="#0B558A"/>
</g>
</svg>
