<svg width="32" height="32" viewBox="0 0 32 32" fill="none" xmlns="http://www.w3.org/2000/svg">
<mask id="mask0_92_164" style="mask-type:alpha" maskUnits="userSpaceOnUse" x="0" y="0" width="32" height="32">
<rect width="32" height="32" fill="#D9D9D9"/>
</mask>
<g mask="url(#mask0_92_164)">
<path d="M16 6.66667C15.6222 6.66667 15.3056 6.53889 15.05 6.28334C14.7945 6.02778 14.6667 5.71111 14.6667 5.33334V2.66667C14.6667 2.28889 14.7945 1.97222 15.05 1.71667C15.3056 1.46111 15.6222 1.33334 16 1.33334C16.3778 1.33334 16.6945 1.46111 16.95 1.71667C17.2056 1.97222 17.3333 2.28889 17.3333 2.66667V5.33334C17.3333 5.71111 17.2056 6.02778 16.95 6.28334C16.6945 6.53889 16.3778 6.66667 16 6.66667ZM22.6 9.4C22.3556 9.15556 22.2333 8.84445 22.2333 8.46667C22.2333 8.08889 22.3556 7.77778 22.6 7.53334L24.4667 5.63334C24.7333 5.36667 25.05 5.23334 25.4167 5.23334C25.7833 5.23334 26.1 5.36667 26.3667 5.63334C26.6111 5.87778 26.7333 6.18889 26.7333 6.56667C26.7333 6.94445 26.6111 7.25556 26.3667 7.5L24.4667 9.4C24.2222 9.64445 23.9111 9.76667 23.5333 9.76667C23.1556 9.76667 22.8445 9.64445 22.6 9.4ZM26.6667 17.3333C26.2889 17.3333 25.9722 17.2056 25.7167 16.95C25.4611 16.6944 25.3333 16.3778 25.3333 16C25.3333 15.6222 25.4611 15.3056 25.7167 15.05C25.9722 14.7944 26.2889 14.6667 26.6667 14.6667H29.3333C29.7111 14.6667 30.0278 14.7944 30.2833 15.05C30.5389 15.3056 30.6667 15.6222 30.6667 16C30.6667 16.3778 30.5389 16.6944 30.2833 16.95C30.0278 17.2056 29.7111 17.3333 29.3333 17.3333H26.6667ZM24.4667 26.3667L22.6 24.4667C22.3556 24.2222 22.2333 23.9111 22.2333 23.5333C22.2333 23.1556 22.3556 22.8444 22.6 22.6C22.8445 22.3556 23.1556 22.2333 23.5333 22.2333C23.9111 22.2333 24.2222 22.3556 24.4667 22.6L26.3667 24.4667C26.6333 24.7333 26.7667 25.05 26.7667 25.4167C26.7667 25.7833 26.6333 26.1 26.3667 26.3667C26.1 26.6333 25.7833 26.7667 25.4167 26.7667C25.05 26.7667 24.7333 26.6333 24.4667 26.3667ZM7.53334 9.4L5.63334 7.5C5.3889 7.25556 5.26668 6.94445 5.26668 6.56667C5.26668 6.18889 5.3889 5.87778 5.63334 5.63334C5.90001 5.36667 6.21668 5.23334 6.58334 5.23334C6.95001 5.23334 7.26668 5.36667 7.53334 5.63334L9.40001 7.53334C9.64445 7.77778 9.76668 8.08889 9.76668 8.46667C9.76668 8.84445 9.64445 9.15556 9.40001 9.4C9.15557 9.64445 8.84445 9.76667 8.46668 9.76667C8.0889 9.76667 7.77779 9.64445 7.53334 9.4ZM8.00001 25.3333H14C14.5556 25.3333 15.0278 25.1389 15.4167 24.75C15.8056 24.3611 16 23.8889 16 23.3333C16 22.7778 15.8111 22.3056 15.4333 21.9167C15.0556 21.5278 14.5889 21.3333 14.0333 21.3333H12.3333L11.6667 19.7333C11.3556 19 10.8667 18.4167 10.2 17.9833C9.53334 17.55 8.80001 17.3333 8.00001 17.3333C6.8889 17.3333 5.94445 17.7222 5.16668 18.5C4.3889 19.2778 4.00001 20.2222 4.00001 21.3333C4.00001 22.4444 4.3889 23.3889 5.16668 24.1667C5.94445 24.9444 6.8889 25.3333 8.00001 25.3333ZM8.00001 28C6.15557 28 4.58334 27.35 3.28334 26.05C1.98334 24.75 1.33334 23.1778 1.33334 21.3333C1.33334 19.4889 1.98334 17.9167 3.28334 16.6167C4.58334 15.3167 6.15557 14.6667 8.00001 14.6667C9.33334 14.6667 10.55 15.0278 11.65 15.75C12.75 16.4722 13.5667 17.4444 14.1 18.6667C15.3889 18.6667 16.4722 19.1444 17.35 20.1C18.2278 21.0556 18.6667 22.2 18.6667 23.5333C18.6222 24.8 18.15 25.8611 17.25 26.7167C16.35 27.5722 15.2667 28 14 28H8.00001ZM18.6667 23.5333C18.5556 23.0889 18.4445 22.6556 18.3333 22.2333C18.2222 21.8111 18.1111 21.3778 18 20.9333C19 20.5111 19.8056 19.8556 20.4167 18.9667C21.0278 18.0778 21.3333 17.0889 21.3333 16C21.3333 14.5333 20.8111 13.2778 19.7667 12.2333C18.7222 11.1889 17.4667 10.6667 16 10.6667C14.6667 10.6667 13.5 11.1 12.5 11.9667C11.5 12.8333 10.9111 13.9333 10.7333 15.2667C10.2889 15.1556 9.83334 15.0556 9.36668 14.9667C8.90001 14.8778 8.44445 14.7778 8.00001 14.6667C8.31112 12.7111 9.22779 11.1111 10.75 9.86667C12.2722 8.62222 14.0222 8 16 8C18.2222 8 20.1111 8.77778 21.6667 10.3333C23.2222 11.8889 24 13.7778 24 16C24 17.7111 23.5111 19.25 22.5333 20.6167C21.5556 21.9833 20.2667 22.9556 18.6667 23.5333Z" fill="#494A4B"/>
</g>
</svg>
